<svg xmlns="http://www.w3.org/2000/svg" width="1200" height="1600" viewBox="0 0 1200 1600" role="img" aria-label="由自行车修理店关系生成的参数化视觉指纹">
  <defs>
    <pattern id="paper" width="24" height="24" patternUnits="userSpaceOnUse">
      <rect width="24" height="24" fill="#ece2cc"/>
      <circle cx="4" cy="7" r="1" fill="#b6a98f" opacity=".24"/>
      <circle cx="19" cy="18" r=".8" fill="#7d735f" opacity=".18"/>
    </pattern>
    <pattern id="dense" width="12" height="12" patternUnits="userSpaceOnUse">
      <circle cx="3" cy="3" r="2.2" fill="#10191c"/>
      <circle cx="9" cy="9" r="1.4" fill="#10191c"/>
    </pattern>
    <pattern id="light" width="20" height="20" patternUnits="userSpaceOnUse">
      <circle cx="5" cy="5" r="1.6" fill="#2450a4"/>
    </pattern>
  </defs>
  <rect width="1200" height="1600" fill="url(#paper)"/>
  <rect x="52" y="52" width="1096" height="1496" fill="none" stroke="#2b3537" stroke-width="3"/>
  <path d="M96 1260 C245 1120 298 880 376 648 C470 368 682 256 1100 176" fill="none" stroke="#2450a4" stroke-width="32" stroke-linecap="round"/>
  <path d="M104 1290 C318 1172 414 982 492 716 C558 488 712 334 1090 242" fill="none" stroke="#10191c" stroke-width="5" stroke-dasharray="16 18"/>
  <rect x="468" y="658" width="590" height="420" rx="16" fill="#151f24"/>
  <rect x="500" y="690" width="526" height="356" fill="url(#dense)" opacity=".72"/>
  <g fill="none" stroke="#b5673e" stroke-width="9">
    <circle cx="730" cy="378" r="154"/>
    <circle cx="890" cy="378" r="154"/>
    <circle cx="1050" cy="378" r="154"/>
  </g>
  <g stroke="#b5673e" stroke-width="3" opacity=".75">
    <path d="M730 224v308M576 378h308M621 269l218 218M621 487l218-218"/>
    <path d="M890 224v308M736 378h308M781 269l218 218M781 487l218-218"/>
  </g>
  <circle cx="286" cy="1060" r="164" fill="url(#light)" stroke="#2450a4" stroke-width="5"/>
  <circle cx="286" cy="1060" r="72" fill="#ece2cc" stroke="#2450a4" stroke-width="12"/>
  <path d="M286 1060 L520 834 L718 1060 Z" fill="none" stroke="#2450a4" stroke-width="22" stroke-linejoin="round"/>
  <path d="M520 834 L606 720 M520 834 L426 720" stroke="#2450a4" stroke-width="18" stroke-linecap="round"/>
  <rect x="792" y="1120" width="210" height="286" rx="96" fill="#a53f2d"/>
  <rect x="826" y="1390" width="18" height="112" fill="#a53f2d"/>
  <rect x="950" y="1390" width="18" height="112" fill="#a53f2d"/>
  <path d="M844 1452h124" stroke="#a53f2d" stroke-width="14"/>
  <path d="M104 1460 H684" stroke="#10191c" stroke-width="4"/>
  <path d="M104 1492 H512" stroke="#2450a4" stroke-width="12"/>
  <circle cx="690" cy="1460" r="12" fill="#a53f2d"/>
</svg>
